<?xml version="1.0" encoding="utf-8"?>
<!-- Generator: Adobe Illustrator 18.0.0, SVG Export Plug-In . SVG Version: 6.00 Build 0)  -->
<!DOCTYPE svg PUBLIC "-//W3C//DTD SVG 1.1//EN" "http://www.w3.org/Graphics/SVG/1.1/DTD/svg11.dtd">
<svg version="1.1" id="Layer_1" xmlns="http://www.w3.org/2000/svg" xmlns:xlink="http://www.w3.org/1999/xlink" x="0px" y="0px"
	 viewBox="0 0 64 64" enable-background="new 0 0 64 64" xml:space="preserve">
<g>
	<g>
		<path d="M48.9,64c-0.9,0-1.7-0.3-2.4-0.7L32.3,54c-0.2-0.1-0.3-0.1-0.5,0l-14.2,9.3C16.8,63.7,16,64,15.1,64
			c-1.4,0-2.7-0.6-3.5-1.7c-0.9-1.1-1.2-2.5-0.8-3.8L14.8,41c0-0.2,0-0.4-0.2-0.5L1.5,28.7c-1.3-1.2-1.8-3.1-1.3-4.8
			c0.6-1.7,2.1-2.9,3.9-3l16.9-1.3c0.2,0,0.3-0.1,0.4-0.3l6.3-16.4C28.5,1.1,30.1,0,32,0s3.5,1.1,4.2,2.9l6.3,16.4
			c0.1,0.2,0.2,0.3,0.4,0.3l16.9,1.3c1.8,0.1,3.3,1.3,3.9,3c0.6,1.7,0.1,3.6-1.3,4.8L49.3,40.5c-0.1,0.1-0.2,0.3-0.2,0.5l4.1,17.5
			c0.3,1.3,0,2.7-0.8,3.8C51.6,63.4,50.2,64,48.9,64z M32,49.9c0.9,0,1.7,0.3,2.5,0.7l14.2,9.3c0.2,0.2,0.5,0.1,0.7-0.1
			c0.1-0.1,0.1-0.2,0.1-0.4l-4.1-17.5c-0.4-1.6,0.2-3.3,1.4-4.4l13.2-11.7c0.2-0.2,0.2-0.4,0.1-0.5c-0.1-0.2-0.2-0.3-0.4-0.3
			l-16.9-1.3c-1.7-0.1-3.2-1.3-3.8-2.9L32.5,4.3c-0.2-0.4-0.7-0.4-0.9,0l-6.3,16.4c-0.6,1.6-2.1,2.7-3.8,2.9L4.5,24.9
			c-0.2,0-0.4,0.1-0.4,0.3c0,0.1-0.1,0.4,0.1,0.5l13.2,11.7c1.2,1.1,1.8,2.8,1.4,4.4l-4.1,17.5c0,0.2,0,0.3,0.1,0.4
			c0.2,0.2,0.4,0.3,0.7,0.1l14.2-9.3C30.3,50.1,31.1,49.9,32,49.9z"/>
	</g>
</g>
</svg>
